<svg width="72" height="72" viewBox="0 0 72 72" fill="none" xmlns="http://www.w3.org/2000/svg">
<g filter="url(#filter0_d_1_49)">
<path d="M36 1C50.9121 1 63 13.0878 63 28C63.0072 32.9653 61.6389 37.8356 59.0468 42.0706L59.8883 52.5731C59.9064 52.7961 59.8753 53.0203 59.7972 53.23C59.7191 53.4397 59.596 53.6296 59.4364 53.7865C59.2768 53.9433 59.0848 54.0632 58.8738 54.1377C58.6628 54.2122 58.438 54.2394 58.2154 54.2175L46.1662 53.0193C42.967 54.3235 39.5293 55 36 55C21.0878 55 9 42.9122 9 28C9 13.0878 21.0878 1 36 1ZM25.8113 24.9434C25.0007 24.9434 24.2232 25.2654 23.65 25.8387C23.0767 26.4119 22.7547 27.1893 22.7547 28C22.7547 28.8107 23.0767 29.5881 23.65 30.1613C24.2232 30.7346 25.0007 31.0566 25.8113 31.0566C26.622 31.0566 27.3994 30.7346 27.9727 30.1613C28.5459 29.5881 28.8679 28.8107 28.8679 28C28.8679 27.1893 28.5459 26.4119 27.9727 25.8387C27.3994 25.2654 26.622 24.9434 25.8113 24.9434ZM36 24.9434C35.1893 24.9434 34.4119 25.2654 33.8386 25.8387C33.2654 26.4119 32.9434 27.1893 32.9434 28C32.9434 28.8107 33.2654 29.5881 33.8386 30.1613C34.4119 30.7346 35.1893 31.0566 36 31.0566C36.8106 31.0566 37.5881 30.7346 38.1613 30.1613C38.7346 29.5881 39.0566 28.8107 39.0566 28C39.0566 27.1893 38.7346 26.4119 38.1613 25.8387C37.5881 25.2654 36.8106 24.9434 36 24.9434ZM46.1887 24.9434C45.378 24.9434 44.6005 25.2654 44.0273 25.8387C43.4541 26.4119 43.1321 27.1893 43.1321 28C43.1321 28.8107 43.4541 29.5881 44.0273 30.1613C44.6005 30.7346 45.378 31.0566 46.1887 31.0566C46.9993 31.0566 47.7768 30.7346 48.35 30.1613C48.9232 29.5881 49.2453 28.8107 49.2453 28C49.2453 27.1893 48.9232 26.4119 48.35 25.8387C47.7768 25.2654 46.9993 24.9434 46.1887 24.9434Z" fill="#72D6C2"/>
</g>
<defs>
<filter id="filter0_d_1_49" x="0" y="0" width="72" height="72" filterUnits="userSpaceOnUse" color-interpolation-filters="sRGB">
<feFlood flood-opacity="0" result="BackgroundImageFix"/>
<feColorMatrix in="SourceAlpha" type="matrix" values="0 0 0 0 0 0 0 0 0 0 0 0 0 0 0 0 0 0 127 0" result="hardAlpha"/>
<feOffset dy="8"/>
<feGaussianBlur stdDeviation="4.5"/>
<feComposite in2="hardAlpha" operator="out"/>
<feColorMatrix type="matrix" values="0 0 0 0 0.460208 0 0 0 0 0.738096 0 0 0 0 0.783333 0 0 0 0.15 0"/>
<feBlend mode="normal" in2="BackgroundImageFix" result="effect1_dropShadow_1_49"/>
<feBlend mode="normal" in="SourceGraphic" in2="effect1_dropShadow_1_49" result="shape"/>
</filter>
</defs>
</svg>
