<svg version="1.2" xmlns="http://www.w3.org/2000/svg" viewBox="0 0 1020 3695" width="1020" height="3695">
	<title>Group 216-svg</title>
	<defs>
		<clipPath clipPathUnits="userSpaceOnUse" id="cp1">
			<path d="m0 0h1020v3695h-1020z"/>
		</clipPath>
		<clipPath clipPathUnits="userSpaceOnUse" id="cp2">
			<path d="m1140 0h1020v2416h-1020z"/>
		</clipPath>
		<clipPath clipPathUnits="userSpaceOnUse" id="cp3">
			<path d="m0 0h1020v3695h-1020z"/>
		</clipPath>
	</defs>
	<style>
		.s0 { mix-blend-mode: soft-light;fill: #f2ede7 } 
		.s1 { fill: none;stroke: #dbd1c9;stroke-miterlimit:10;stroke-width: .4 } 
		.s2 { fill: none } 
	</style>
	<g id="Layer">
		<path id="Layer" class="s0" d="m0 0h1020v3695h-1020z"/>
	</g>
	<g id="Clip-Path" clip-path="url(#cp1)">
		<g id="Layer">
			<path id="Layer" fill-rule="evenodd" class="s1" d="m0 22h1323"/>
			<path id="Layer" fill-rule="evenodd" class="s1" d="m0 45h1323"/>
			<path id="Layer" fill-rule="evenodd" class="s1" d="m0 68h1323"/>
			<path id="Layer" fill-rule="evenodd" class="s1" d="m0 91h1323"/>
			<path id="Layer" fill-rule="evenodd" class="s1" d="m0 114h1323"/>
			<path id="Layer" fill-rule="evenodd" class="s1" d="m0 137h1323"/>
			<path id="Layer" fill-rule="evenodd" class="s1" d="m0 161h1323"/>
			<path id="Layer" fill-rule="evenodd" class="s1" d="m0 184h1323"/>
			<path id="Layer" fill-rule="evenodd" class="s1" d="m0 207h1323"/>
			<path id="Layer" fill-rule="evenodd" class="s1" d="m0 231h1323"/>
			<path id="Layer" fill-rule="evenodd" class="s1" d="m0 254h1323"/>
			<path id="Layer" fill-rule="evenodd" class="s1" d="m0 277h1323"/>
			<path id="Layer" fill-rule="evenodd" class="s1" d="m0 300h1323"/>
			<path id="Layer" fill-rule="evenodd" class="s1" d="m0 323h1323"/>
			<path id="Layer" fill-rule="evenodd" class="s1" d="m0 347h1323"/>
			<path id="Layer" fill-rule="evenodd" class="s1" d="m0 370h1323"/>
			<path id="Layer" fill-rule="evenodd" class="s1" d="m0 393h1323"/>
			<path id="Layer" fill-rule="evenodd" class="s1" d="m0 416h1323"/>
			<path id="Layer" fill-rule="evenodd" class="s1" d="m0 439h1323"/>
			<path id="Layer" fill-rule="evenodd" class="s1" d="m0 462h1323"/>
			<path id="Layer" fill-rule="evenodd" class="s1" d="m0 486h1323"/>
			<path id="Layer" fill-rule="evenodd" class="s1" d="m0 509h1323"/>
			<path id="Layer" fill-rule="evenodd" class="s1" d="m0 533h1323"/>
			<path id="Layer" fill-rule="evenodd" class="s1" d="m0 556h1323"/>
			<path id="Layer" fill-rule="evenodd" class="s1" d="m0 579h1323"/>
			<path id="Layer" fill-rule="evenodd" class="s1" d="m0 602h1323"/>
			<path id="Layer" fill-rule="evenodd" class="s1" d="m0 625h1323"/>
			<path id="Layer" fill-rule="evenodd" class="s1" d="m0 648h1323"/>
			<path id="Layer" fill-rule="evenodd" class="s1" d="m0 671h1323"/>
			<path id="Layer" fill-rule="evenodd" class="s1" d="m0 694h1323"/>
			<path id="Layer" fill-rule="evenodd" class="s1" d="m0 718h1323"/>
			<path id="Layer" fill-rule="evenodd" class="s1" d="m0 742h1323"/>
			<path id="Layer" fill-rule="evenodd" class="s1" d="m0 765h1323"/>
			<path id="Layer" fill-rule="evenodd" class="s1" d="m0 788h1323"/>
			<path id="Layer" fill-rule="evenodd" class="s1" d="m0 812h1323"/>
			<path id="Layer" fill-rule="evenodd" class="s1" d="m0 836h1323"/>
			<path id="Layer" fill-rule="evenodd" class="s1" d="m0 859h1323"/>
			<path id="Layer" fill-rule="evenodd" class="s1" d="m0 882h1323"/>
			<path id="Layer" fill-rule="evenodd" class="s1" d="m0 905h1323"/>
			<path id="Layer" fill-rule="evenodd" class="s1" d="m0 928h1323"/>
			<path id="Layer" fill-rule="evenodd" class="s1" d="m0 951h1323"/>
			<path id="Layer" fill-rule="evenodd" class="s1" d="m0 975h1323"/>
			<path id="Layer" fill-rule="evenodd" class="s1" d="m0 998h1323"/>
			<path id="Layer" fill-rule="evenodd" class="s1" d="m0 1021h1323"/>
			<path id="Layer" fill-rule="evenodd" class="s1" d="m0 1045h1323"/>
			<path id="Layer" fill-rule="evenodd" class="s1" d="m0 1068h1323"/>
			<path id="Layer" fill-rule="evenodd" class="s1" d="m0 1091h1323"/>
			<path id="Layer" fill-rule="evenodd" class="s1" d="m0 1114h1323"/>
			<path id="Layer" fill-rule="evenodd" class="s1" d="m0 1137h1323"/>
			<path id="Layer" fill-rule="evenodd" class="s1" d="m0 1161h1323"/>
			<path id="Layer" fill-rule="evenodd" class="s1" d="m0 1184h1323"/>
			<path id="Layer" fill-rule="evenodd" class="s1" d="m0 1207h1323"/>
			<path id="Layer" fill-rule="evenodd" class="s1" d="m0 1230h1323"/>
			<path id="Layer" fill-rule="evenodd" class="s1" d="m0 1253h1323"/>
			<path id="Layer" fill-rule="evenodd" class="s1" d="m0 1276h1323"/>
			<path id="Layer" fill-rule="evenodd" class="s1" d="m0 1300h1323"/>
			<path id="Layer" fill-rule="evenodd" class="s1" d="m0 1323h1323"/>
			<path id="Layer" fill-rule="evenodd" class="s1" d="m0 1347h1323"/>
			<path id="Layer" fill-rule="evenodd" class="s1" d="m0 1370h1323"/>
			<path id="Layer" fill-rule="evenodd" class="s1" d="m0 1393h1323"/>
			<path id="Layer" fill-rule="evenodd" class="s1" d="m0 1416h1323"/>
			<path id="Layer" fill-rule="evenodd" class="s1" d="m0 1439h1323"/>
			<path id="Layer" fill-rule="evenodd" class="s1" d="m0 1462h1323"/>
			<path id="Layer" fill-rule="evenodd" class="s1" d="m0 1485h1323"/>
			<path id="Layer" fill-rule="evenodd" class="s1" d="m0 1508h1323"/>
			<path id="Layer" fill-rule="evenodd" class="s1" d="m0 1532h1323"/>
			<path id="Layer" fill-rule="evenodd" class="s1" d="m0 1556h1323"/>
			<path id="Layer" fill-rule="evenodd" class="s1" d="m0 1579h1323"/>
			<path id="Layer" fill-rule="evenodd" class="s1" d="m0 1602h1323"/>
			<path id="Layer" fill-rule="evenodd" class="s1" d="m0 1626h1323"/>
			<path id="Layer" fill-rule="evenodd" class="s1" d="m0 1650h1323"/>
			<path id="Layer" fill-rule="evenodd" class="s1" d="m0 1673h1323"/>
			<path id="Layer" fill-rule="evenodd" class="s1" d="m0 1696h1323"/>
			<path id="Layer" fill-rule="evenodd" class="s1" d="m0 1719h1323"/>
			<path id="Layer" fill-rule="evenodd" class="s1" d="m0 1742h1323"/>
			<path id="Layer" fill-rule="evenodd" class="s1" d="m0 1765h1323"/>
			<path id="Layer" fill-rule="evenodd" class="s1" d="m0 1789h1323"/>
			<path id="Layer" fill-rule="evenodd" class="s1" d="m0 1812h1323"/>
			<path id="Layer" fill-rule="evenodd" class="s1" d="m0 1835h1323"/>
			<path id="Layer" fill-rule="evenodd" class="s1" d="m0 1859h1323"/>
			<path id="Layer" fill-rule="evenodd" class="s1" d="m0 1882h1323"/>
			<path id="Layer" fill-rule="evenodd" class="s1" d="m0 1905h1323"/>
			<path id="Layer" fill-rule="evenodd" class="s1" d="m0 1928h1323"/>
			<path id="Layer" fill-rule="evenodd" class="s1" d="m0 1951h1323"/>
			<path id="Layer" fill-rule="evenodd" class="s1" d="m0 1975h1323"/>
			<path id="Layer" fill-rule="evenodd" class="s1" d="m0 1998h1323"/>
			<path id="Layer" fill-rule="evenodd" class="s1" d="m0 2021h1323"/>
			<path id="Layer" fill-rule="evenodd" class="s1" d="m0 2044h1323"/>
			<path id="Layer" fill-rule="evenodd" class="s1" d="m0 2067h1323"/>
			<path id="Layer" fill-rule="evenodd" class="s1" d="m0 2090h1323"/>
			<path id="Layer" fill-rule="evenodd" class="s1" d="m0 2114h1323"/>
			<path id="Layer" fill-rule="evenodd" class="s1" d="m0 2137h1323"/>
			<path id="Layer" fill-rule="evenodd" class="s1" d="m0 2161h1323"/>
			<path id="Layer" fill-rule="evenodd" class="s1" d="m0 2184h1323"/>
			<path id="Layer" fill-rule="evenodd" class="s1" d="m0 2207h1323"/>
			<path id="Layer" fill-rule="evenodd" class="s1" d="m0 2230h1323"/>
			<path id="Layer" fill-rule="evenodd" class="s1" d="m0 2253h1323"/>
			<path id="Layer" fill-rule="evenodd" class="s1" d="m0 2276h1323"/>
			<path id="Layer" fill-rule="evenodd" class="s1" d="m0 2299h1323"/>
			<path id="Layer" fill-rule="evenodd" class="s1" d="m0 2322h1323"/>
			<path id="Layer" fill-rule="evenodd" class="s1" d="m0 2346h1323"/>
			<path id="Layer" fill-rule="evenodd" class="s1" d="m0 2370h1323"/>
			<path id="Layer" fill-rule="evenodd" class="s1" d="m0 2393h1323"/>
			<path id="Layer" fill-rule="evenodd" class="s1" d="m0 2416h1323"/>
			<path id="Layer" fill-rule="evenodd" class="s1" d="m0 2440h1323"/>
			<path id="Layer" fill-rule="evenodd" class="s1" d="m0 2464h1323"/>
			<path id="Layer" fill-rule="evenodd" class="s1" d="m0 2487h1323"/>
			<path id="Layer" fill-rule="evenodd" class="s1" d="m0 2510h1323"/>
			<path id="Layer" fill-rule="evenodd" class="s1" d="m0 2533h1323"/>
			<path id="Layer" fill-rule="evenodd" class="s1" d="m0 2556h1323"/>
			<path id="Layer" fill-rule="evenodd" class="s1" d="m0 2579h1323"/>
			<path id="Layer" fill-rule="evenodd" class="s1" d="m0 2603h1323"/>
			<path id="Layer" fill-rule="evenodd" class="s1" d="m0 2626h1323"/>
			<path id="Layer" fill-rule="evenodd" class="s1" d="m0 2649h1323"/>
			<path id="Layer" fill-rule="evenodd" class="s1" d="m0 2673h1323"/>
			<path id="Layer" fill-rule="evenodd" class="s1" d="m0 2696h1323"/>
			<path id="Layer" fill-rule="evenodd" class="s1" d="m0 2719h1323"/>
			<path id="Layer" fill-rule="evenodd" class="s1" d="m0 2742h1323"/>
			<path id="Layer" fill-rule="evenodd" class="s1" d="m0 2765h1323"/>
			<path id="Layer" fill-rule="evenodd" class="s1" d="m0 2789h1323"/>
			<path id="Layer" fill-rule="evenodd" class="s1" d="m0 2812h1323"/>
			<path id="Layer" fill-rule="evenodd" class="s1" d="m0 2835h1323"/>
			<path id="Layer" fill-rule="evenodd" class="s1" d="m0 2858h1323"/>
			<path id="Layer" fill-rule="evenodd" class="s1" d="m0 2881h1323"/>
			<path id="Layer" fill-rule="evenodd" class="s1" d="m0 2904h1323"/>
			<path id="Layer" fill-rule="evenodd" class="s1" d="m0 2928h1323"/>
			<path id="Layer" fill-rule="evenodd" class="s1" d="m0 2951h1323"/>
			<path id="Layer" fill-rule="evenodd" class="s1" d="m0 2975h1323"/>
			<path id="Layer" fill-rule="evenodd" class="s1" d="m0 2998h1323"/>
			<path id="Layer" fill-rule="evenodd" class="s1" d="m0 3021h1323"/>
			<path id="Layer" fill-rule="evenodd" class="s1" d="m0 3044h1323"/>
			<path id="Layer" fill-rule="evenodd" class="s1" d="m0 3067h1323"/>
			<path id="Layer" fill-rule="evenodd" class="s1" d="m0 3090h1323"/>
			<path id="Layer" fill-rule="evenodd" class="s1" d="m0 3113h1323"/>
			<path id="Layer" fill-rule="evenodd" class="s1" d="m0 3136h1323"/>
			<path id="Layer" fill-rule="evenodd" class="s1" d="m0 3160h1323"/>
			<path id="Layer" fill-rule="evenodd" class="s1" d="m0 3184h1323"/>
			<path id="Layer" fill-rule="evenodd" class="s1" d="m0 3207h1323"/>
			<path id="Layer" fill-rule="evenodd" class="s1" d="m0 3230h1323"/>
			<path id="Layer" fill-rule="evenodd" class="s1" d="m0 3254h1323"/>
			<path id="Layer" fill-rule="evenodd" class="s1" d="m0 3278h1323"/>
			<path id="Layer" fill-rule="evenodd" class="s1" d="m0 3301h1323"/>
			<path id="Layer" fill-rule="evenodd" class="s1" d="m0 3324h1323"/>
			<path id="Layer" fill-rule="evenodd" class="s1" d="m0 3347h1323"/>
			<path id="Layer" fill-rule="evenodd" class="s1" d="m0 3370h1323"/>
			<path id="Layer" fill-rule="evenodd" class="s1" d="m0 3393h1323"/>
			<path id="Layer" fill-rule="evenodd" class="s1" d="m0 3417h1323"/>
			<path id="Layer" fill-rule="evenodd" class="s1" d="m0 3440h1323"/>
			<path id="Layer" fill-rule="evenodd" class="s1" d="m0 3463h1323"/>
			<path id="Layer" fill-rule="evenodd" class="s1" d="m0 3487h1323"/>
			<path id="Layer" fill-rule="evenodd" class="s1" d="m0 3510h1323"/>
			<path id="Layer" fill-rule="evenodd" class="s1" d="m0 3533h1323"/>
			<path id="Layer" fill-rule="evenodd" class="s1" d="m0 3556h1323"/>
			<path id="Layer" fill-rule="evenodd" class="s1" d="m0 3579h1323"/>
			<path id="Layer" fill-rule="evenodd" class="s1" d="m0 3603h1323"/>
			<path id="Layer" fill-rule="evenodd" class="s1" d="m0 3626h1323"/>
			<path id="Layer" fill-rule="evenodd" class="s1" d="m0 3649h1323"/>
			<path id="Layer" fill-rule="evenodd" class="s1" d="m0 3672h1323"/>
			<path id="Layer" fill-rule="evenodd" class="s1" d="m0 3695h1323"/>
			<path id="Layer" fill-rule="evenodd" class="s1" d="m671 0v6534"/>
			<path id="Layer" fill-rule="evenodd" class="s1" d="m648 0v6534"/>
			<path id="Layer" fill-rule="evenodd" class="s1" d="m625 0v6534"/>
			<path id="Layer" fill-rule="evenodd" class="s1" d="m602 0v6534"/>
			<path id="Layer" fill-rule="evenodd" class="s1" d="m579 0v6534"/>
			<path id="Layer" fill-rule="evenodd" class="s1" d="m555 0v6534"/>
			<path id="Layer" fill-rule="evenodd" class="s1" d="m532 0v6534"/>
			<path id="Layer" fill-rule="evenodd" class="s1" d="m509 0v6534"/>
			<path id="Layer" fill-rule="evenodd" class="s1" d="m486 0v6534"/>
			<path id="Layer" fill-rule="evenodd" class="s1" d="m462 0v6534"/>
			<path id="Layer" fill-rule="evenodd" class="s1" d="m439 0v6534"/>
			<path id="Layer" fill-rule="evenodd" class="s1" d="m416 0v6534"/>
			<path id="Layer" fill-rule="evenodd" class="s1" d="m393 0v6534"/>
			<path id="Layer" fill-rule="evenodd" class="s1" d="m370 0v6534"/>
			<path id="Layer" fill-rule="evenodd" class="s1" d="m1020-1v6535"/>
			<path id="Layer" fill-rule="evenodd" class="s1" d="m346 0v6534"/>
			<path id="Layer" fill-rule="evenodd" class="s1" d="m997-1v6535"/>
			<path id="Layer" fill-rule="evenodd" class="s1" d="m323 0v6534"/>
			<path id="Layer" fill-rule="evenodd" class="s1" d="m974-1v6535"/>
			<path id="Layer" fill-rule="evenodd" class="s1" d="m300 0v6534"/>
			<path id="Layer" fill-rule="evenodd" class="s1" d="m951-1v6535"/>
			<path id="Layer" fill-rule="evenodd" class="s1" d="m277 0v6534"/>
			<path id="Layer" fill-rule="evenodd" class="s1" d="m928-1v6535"/>
			<path id="Layer" fill-rule="evenodd" class="s1" d="m254 0v6534"/>
			<path id="Layer" fill-rule="evenodd" class="s1" d="m905-1v6535"/>
			<path id="Layer" fill-rule="evenodd" class="s1" d="m230 0v6534"/>
			<path id="Layer" fill-rule="evenodd" class="s1" d="m881-1v6535"/>
			<path id="Layer" fill-rule="evenodd" class="s1" d="m207 0v6534"/>
			<path id="Layer" fill-rule="evenodd" class="s1" d="m858-1v6535"/>
			<path id="Layer" fill-rule="evenodd" class="s1" d="m184 0v6534"/>
			<path id="Layer" fill-rule="evenodd" class="s1" d="m834-1v6535"/>
			<path id="Layer" fill-rule="evenodd" class="s1" d="m161 0v6534"/>
			<path id="Layer" fill-rule="evenodd" class="s1" d="m811-1v6535"/>
			<path id="Layer" fill-rule="evenodd" class="s1" d="m138-8v6542"/>
			<path id="Layer" fill-rule="evenodd" class="s1" d="m788-1v6542"/>
			<path id="Layer" fill-rule="evenodd" class="s1" d="m114 0v6534"/>
			<path id="Layer" fill-rule="evenodd" class="s1" d="m765-1v6535"/>
			<path id="Layer" fill-rule="evenodd" class="s1" d="m91 0v6534"/>
			<path id="Layer" fill-rule="evenodd" class="s1" d="m741-1v6535"/>
			<path id="Layer" fill-rule="evenodd" class="s1" d="m68 0v6534"/>
			<path id="Layer" fill-rule="evenodd" class="s1" d="m718-1v6535"/>
			<path id="Layer" fill-rule="evenodd" class="s1" d="m45 0v6534"/>
			<path id="Layer" fill-rule="evenodd" class="s1" d="m695-1v6535"/>
			<path id="Layer" fill-rule="evenodd" class="s1" d="m21 0v6534"/>
		</g>
	</g>
	<g id="Clip-Path" clip-path="url(#cp2)">
		<g id="Layer">
			<path id="Layer" fill-rule="evenodd" class="s1" d="m1140 22h1323"/>
			<path id="Layer" fill-rule="evenodd" class="s1" d="m1140 45h1323"/>
			<path id="Layer" fill-rule="evenodd" class="s1" d="m1140 68h1323"/>
			<path id="Layer" fill-rule="evenodd" class="s1" d="m1140 91h1323"/>
			<path id="Layer" fill-rule="evenodd" class="s1" d="m1140 114h1323"/>
			<path id="Layer" fill-rule="evenodd" class="s1" d="m1140 137h1323"/>
			<path id="Layer" fill-rule="evenodd" class="s1" d="m1140 161h1323"/>
			<path id="Layer" fill-rule="evenodd" class="s1" d="m1140 184h1323"/>
			<path id="Layer" fill-rule="evenodd" class="s1" d="m1140 207h1323"/>
			<path id="Layer" fill-rule="evenodd" class="s1" d="m1140 231h1323"/>
			<path id="Layer" fill-rule="evenodd" class="s1" d="m1140 254h1323"/>
			<path id="Layer" fill-rule="evenodd" class="s1" d="m1140 277h1323"/>
			<path id="Layer" fill-rule="evenodd" class="s1" d="m1140 300h1323"/>
			<path id="Layer" fill-rule="evenodd" class="s1" d="m1140 323h1323"/>
			<path id="Layer" fill-rule="evenodd" class="s1" d="m1140 347h1323"/>
			<path id="Layer" fill-rule="evenodd" class="s1" d="m1140 370h1323"/>
			<path id="Layer" fill-rule="evenodd" class="s1" d="m1140 393h1323"/>
			<path id="Layer" fill-rule="evenodd" class="s1" d="m1140 416h1323"/>
			<path id="Layer" fill-rule="evenodd" class="s1" d="m1140 439h1323"/>
			<path id="Layer" fill-rule="evenodd" class="s1" d="m1140 462h1323"/>
			<path id="Layer" fill-rule="evenodd" class="s1" d="m1140 486h1323"/>
			<path id="Layer" fill-rule="evenodd" class="s1" d="m1140 509h1323"/>
			<path id="Layer" fill-rule="evenodd" class="s1" d="m1140 533h1323"/>
			<path id="Layer" fill-rule="evenodd" class="s1" d="m1140 556h1323"/>
			<path id="Layer" fill-rule="evenodd" class="s1" d="m1140 579h1323"/>
			<path id="Layer" fill-rule="evenodd" class="s1" d="m1140 602h1323"/>
			<path id="Layer" fill-rule="evenodd" class="s1" d="m1140 625h1323"/>
			<path id="Layer" fill-rule="evenodd" class="s1" d="m1140 648h1323"/>
			<path id="Layer" fill-rule="evenodd" class="s1" d="m1140 671h1323"/>
			<path id="Layer" fill-rule="evenodd" class="s1" d="m1140 694h1323"/>
			<path id="Layer" fill-rule="evenodd" class="s1" d="m1140 718h1323"/>
			<path id="Layer" fill-rule="evenodd" class="s1" d="m1140 742h1323"/>
			<path id="Layer" fill-rule="evenodd" class="s1" d="m1140 765h1323"/>
			<path id="Layer" fill-rule="evenodd" class="s1" d="m1140 788h1323"/>
			<path id="Layer" fill-rule="evenodd" class="s1" d="m1140 812h1323"/>
			<path id="Layer" fill-rule="evenodd" class="s1" d="m1140 836h1323"/>
			<path id="Layer" fill-rule="evenodd" class="s1" d="m1140 859h1323"/>
			<path id="Layer" fill-rule="evenodd" class="s1" d="m1140 882h1323"/>
			<path id="Layer" fill-rule="evenodd" class="s1" d="m1140 905h1323"/>
			<path id="Layer" fill-rule="evenodd" class="s1" d="m1140 928h1323"/>
			<path id="Layer" fill-rule="evenodd" class="s1" d="m1140 951h1323"/>
			<path id="Layer" fill-rule="evenodd" class="s1" d="m1140 975h1323"/>
			<path id="Layer" fill-rule="evenodd" class="s1" d="m1140 998h1323"/>
			<path id="Layer" fill-rule="evenodd" class="s1" d="m1140 1021h1323"/>
			<path id="Layer" fill-rule="evenodd" class="s1" d="m1140 1045h1323"/>
			<path id="Layer" fill-rule="evenodd" class="s1" d="m1140 1068h1323"/>
			<path id="Layer" fill-rule="evenodd" class="s1" d="m1140 1091h1323"/>
			<path id="Layer" fill-rule="evenodd" class="s1" d="m1140 1114h1323"/>
			<path id="Layer" fill-rule="evenodd" class="s1" d="m1140 1137h1323"/>
			<path id="Layer" fill-rule="evenodd" class="s1" d="m1140 1161h1323"/>
			<path id="Layer" fill-rule="evenodd" class="s1" d="m1140 1184h1323"/>
			<path id="Layer" fill-rule="evenodd" class="s1" d="m1140 1207h1323"/>
			<path id="Layer" fill-rule="evenodd" class="s1" d="m1140 1230h1323"/>
			<path id="Layer" fill-rule="evenodd" class="s1" d="m1140 1253h1323"/>
			<path id="Layer" fill-rule="evenodd" class="s1" d="m1140 1276h1323"/>
			<path id="Layer" fill-rule="evenodd" class="s1" d="m1140 1300h1323"/>
			<path id="Layer" fill-rule="evenodd" class="s1" d="m1140 1323h1323"/>
			<path id="Layer" fill-rule="evenodd" class="s1" d="m1140 1347h1323"/>
			<path id="Layer" fill-rule="evenodd" class="s1" d="m1140 1370h1323"/>
			<path id="Layer" fill-rule="evenodd" class="s1" d="m1140 1393h1323"/>
			<path id="Layer" fill-rule="evenodd" class="s1" d="m1140 1416h1323"/>
			<path id="Layer" fill-rule="evenodd" class="s1" d="m1140 1439h1323"/>
			<path id="Layer" fill-rule="evenodd" class="s1" d="m1140 1462h1323"/>
			<path id="Layer" fill-rule="evenodd" class="s1" d="m1140 1485h1323"/>
			<path id="Layer" fill-rule="evenodd" class="s1" d="m1140 1508h1323"/>
			<path id="Layer" fill-rule="evenodd" class="s1" d="m1140 1532h1323"/>
			<path id="Layer" fill-rule="evenodd" class="s1" d="m1140 1556h1323"/>
			<path id="Layer" fill-rule="evenodd" class="s1" d="m1140 1579h1323"/>
			<path id="Layer" fill-rule="evenodd" class="s1" d="m1140 1602h1323"/>
			<path id="Layer" fill-rule="evenodd" class="s1" d="m1140 1626h1323"/>
			<path id="Layer" fill-rule="evenodd" class="s1" d="m1140 1650h1323"/>
			<path id="Layer" fill-rule="evenodd" class="s1" d="m1140 1673h1323"/>
			<path id="Layer" fill-rule="evenodd" class="s1" d="m1140 1696h1323"/>
			<path id="Layer" fill-rule="evenodd" class="s1" d="m1140 1719h1323"/>
			<path id="Layer" fill-rule="evenodd" class="s1" d="m1140 1742h1323"/>
			<path id="Layer" fill-rule="evenodd" class="s1" d="m1140 1765h1323"/>
			<path id="Layer" fill-rule="evenodd" class="s1" d="m1140 1789h1323"/>
			<path id="Layer" fill-rule="evenodd" class="s1" d="m1140 1812h1323"/>
			<path id="Layer" fill-rule="evenodd" class="s1" d="m1140 1835h1323"/>
			<path id="Layer" fill-rule="evenodd" class="s1" d="m1140 1859h1323"/>
			<path id="Layer" fill-rule="evenodd" class="s1" d="m1140 1882h1323"/>
			<path id="Layer" fill-rule="evenodd" class="s1" d="m1140 1905h1323"/>
			<path id="Layer" fill-rule="evenodd" class="s1" d="m1140 1928h1323"/>
			<path id="Layer" fill-rule="evenodd" class="s1" d="m1140 1951h1323"/>
			<path id="Layer" fill-rule="evenodd" class="s1" d="m1140 1975h1323"/>
			<path id="Layer" fill-rule="evenodd" class="s1" d="m1140 1998h1323"/>
			<path id="Layer" fill-rule="evenodd" class="s1" d="m1140 2021h1323"/>
			<path id="Layer" fill-rule="evenodd" class="s1" d="m1140 2044h1323"/>
			<path id="Layer" fill-rule="evenodd" class="s1" d="m1140 2067h1323"/>
			<path id="Layer" fill-rule="evenodd" class="s1" d="m1140 2090h1323"/>
			<path id="Layer" fill-rule="evenodd" class="s1" d="m1140 2114h1323"/>
			<path id="Layer" fill-rule="evenodd" class="s1" d="m1140 2137h1323"/>
			<path id="Layer" fill-rule="evenodd" class="s1" d="m1140 2161h1323"/>
			<path id="Layer" fill-rule="evenodd" class="s1" d="m1140 2184h1323"/>
			<path id="Layer" fill-rule="evenodd" class="s1" d="m1140 2207h1323"/>
			<path id="Layer" fill-rule="evenodd" class="s1" d="m1140 2230h1323"/>
			<path id="Layer" fill-rule="evenodd" class="s1" d="m1140 2253h1323"/>
			<path id="Layer" fill-rule="evenodd" class="s1" d="m1140 2276h1323"/>
			<path id="Layer" fill-rule="evenodd" class="s1" d="m1140 2299h1323"/>
			<path id="Layer" fill-rule="evenodd" class="s1" d="m1140 2322h1323"/>
			<path id="Layer" fill-rule="evenodd" class="s1" d="m1140 2346h1323"/>
			<path id="Layer" fill-rule="evenodd" class="s1" d="m1140 2370h1323"/>
			<path id="Layer" fill-rule="evenodd" class="s1" d="m1140 2393h1323"/>
			<path id="Layer" fill-rule="evenodd" class="s1" d="m1140 2416h1323"/>
			<path id="Layer" fill-rule="evenodd" class="s1" d="m1811 0v6534"/>
			<path id="Layer" fill-rule="evenodd" class="s1" d="m1788 0v6534"/>
			<path id="Layer" fill-rule="evenodd" class="s1" d="m1765 0v6534"/>
			<path id="Layer" fill-rule="evenodd" class="s1" d="m1742 0v6534"/>
			<path id="Layer" fill-rule="evenodd" class="s1" d="m1719 0v6534"/>
			<path id="Layer" fill-rule="evenodd" class="s1" d="m1695 0v6534"/>
			<path id="Layer" fill-rule="evenodd" class="s1" d="m1672 0v6534"/>
			<path id="Layer" fill-rule="evenodd" class="s1" d="m1649 0v6534"/>
			<path id="Layer" fill-rule="evenodd" class="s1" d="m1626 0v6534"/>
			<path id="Layer" fill-rule="evenodd" class="s1" d="m1602 0v6534"/>
			<path id="Layer" fill-rule="evenodd" class="s1" d="m1579 0v6534"/>
			<path id="Layer" fill-rule="evenodd" class="s1" d="m1556 0v6534"/>
			<path id="Layer" fill-rule="evenodd" class="s1" d="m1533 0v6534"/>
			<path id="Layer" fill-rule="evenodd" class="s1" d="m1510 0v6534"/>
			<path id="Layer" fill-rule="evenodd" class="s1" d="m2160-1v6535"/>
			<path id="Layer" fill-rule="evenodd" class="s1" d="m1486 0v6534"/>
			<path id="Layer" fill-rule="evenodd" class="s1" d="m2137-1v6535"/>
			<path id="Layer" fill-rule="evenodd" class="s1" d="m1463 0v6534"/>
			<path id="Layer" fill-rule="evenodd" class="s1" d="m2114-1v6535"/>
			<path id="Layer" fill-rule="evenodd" class="s1" d="m1440 0v6534"/>
			<path id="Layer" fill-rule="evenodd" class="s1" d="m2091-1v6535"/>
			<path id="Layer" fill-rule="evenodd" class="s1" d="m1417 0v6534"/>
			<path id="Layer" fill-rule="evenodd" class="s1" d="m2068-1v6535"/>
			<path id="Layer" fill-rule="evenodd" class="s1" d="m1394 0v6534"/>
			<path id="Layer" fill-rule="evenodd" class="s1" d="m2045-1v6535"/>
			<path id="Layer" fill-rule="evenodd" class="s1" d="m1370 0v6534"/>
			<path id="Layer" fill-rule="evenodd" class="s1" d="m2021-1v6535"/>
			<path id="Layer" fill-rule="evenodd" class="s1" d="m1347 0v6534"/>
			<path id="Layer" fill-rule="evenodd" class="s1" d="m1998-1v6535"/>
			<path id="Layer" fill-rule="evenodd" class="s1" d="m1324 0v6534"/>
			<path id="Layer" fill-rule="evenodd" class="s1" d="m1974-1v6535"/>
			<path id="Layer" fill-rule="evenodd" class="s1" d="m1301 0v6534"/>
			<path id="Layer" fill-rule="evenodd" class="s1" d="m1951-1v6535"/>
			<path id="Layer" fill-rule="evenodd" class="s1" d="m1278-8v6542"/>
			<path id="Layer" fill-rule="evenodd" class="s1" d="m1928-1v6542"/>
			<path id="Layer" fill-rule="evenodd" class="s1" d="m1254 0v6534"/>
			<path id="Layer" fill-rule="evenodd" class="s1" d="m1905-1v6535"/>
			<path id="Layer" fill-rule="evenodd" class="s1" d="m1231 0v6534"/>
			<path id="Layer" fill-rule="evenodd" class="s1" d="m1881-1v6535"/>
			<path id="Layer" fill-rule="evenodd" class="s1" d="m1208 0v6534"/>
			<path id="Layer" fill-rule="evenodd" class="s1" d="m1858-1v6535"/>
			<path id="Layer" fill-rule="evenodd" class="s1" d="m1185 0v6534"/>
			<path id="Layer" fill-rule="evenodd" class="s1" d="m1835-1v6535"/>
			<path id="Layer" fill-rule="evenodd" class="s1" d="m1161 0v6534"/>
		</g>
	</g>
	<g id="Clip-Path" clip-path="url(#cp3)">
		<g id="Layer">
			<path id="Layer" class="s2" d="m-435 0h1534v1214h-1534z"/>
		</g>
	</g>
</svg>